#!OML:ASF F:\VICON\USERDATA\INSTALL\rory3\rory3.ASF
:FULLY-SPECIFIED
:DEGREES
834
root 0.367891 18.2896 0.394436 9.79668 11.9932 5.26751
lowerback 15.8385 -0.601148 -2.69485
upperback 7.49729 -1.11268 -0.474087
thorax -0.877832 -0.582995 1.2037
lowerneck 5.26144 -2.35205 -8.80925
upperneck 20.8435 -3.90014 5.34035
head 5.71595 -2.17351 3.05778
rclavicle -7.95139e-015 -1.27222e-014
rhumerus -21.2276 35.3899 -89.6311
rradius 54.4716
rwrist 20.9195
rhand -9.56839 0.43291
rfingers 7.12502
rthumb 16.3992 -28.8938
lclavicle -7.95139e-015 -1.27222e-014
lhumerus 23.4139 -43.7282 73.7744
lradius 136.58
lwrist 93.4407
lhand -33.9805 60.9936
lfingers 7.12502
lthumb -7.16071 -90.8525
rfemur -35.0704 6.45539 9.90185
rtibia 42.4181
rfoot -15.3761 -11.3494
rtoes -3.42756
lfemur -25.0242 -7.55599 -12.2726
ltibia 43.4566
lfoot -10.7275 0.561868
ltoes -20.3292
835
root 0.347059 18.29 0.449009 9.15192 11.5989 5.10773
lowerback 15.7102 -0.627491 -2.81629
upperback 7.43551 -1.16269 -0.410357
thorax -0.869245 -0.612888 1.3454
lowerneck 4.95392 -2.39697 -8.84405
upperneck 20.6198 -3.93513 5.29738
head 5.69866 -2.19313 3.04202
rclavicle -2.18663e-015 1.07344e-014
rhumerus -20.9149 35.9625 -89.4455
rradius 54.1206
rwrist 20.4767
rhand -9.78485 0.667345
rfingers 7.12502
rthumb 16.1908 -28.6765
lclavicle -2.18663e-015 1.07344e-014
lhumerus 24.3003 -43.4666 73.3949
lradius 136.546
lwrist 93.374
lhand -34.5411 60.9341
lfingers 7.12502
lthumb -7.70184 -90.7739
rfemur -34.3443 6.70762 10.3103
rtibia 42.4218
rfoot -15.451 -11.1513
rtoes -3.26066
lfemur -24.7828 -7.32509 -12.0692
ltibia 44.4914
lfoot -10.0708 0.284661
ltoes -20.8464
836
root 0.326087 18.2857 0.503433 8.51254 11.1379 4.88731
lowerback 15.3726 -0.556523 -2.9868
upperback 7.47752 -1.08093 -0.278823
thorax -0.6434 -0.5839 1.56025
lowerneck 4.65768 -2.51834 -8.89764
upperneck 20.339 -4.08949 5.36971
head 5.67227 -2.26395 3.06147
rclavicle 4.17448e-015 -9.93923e-015
rhumerus -20.4436 36.2881 -89.0705
rradius 53.832
rwrist 19.9518
rhand -9.23541 1.06388
rfingers 7.12502
rthumb 16.7198 -28.2361
lclavicle 4.17448e-015 -9.93923e-015
lhumerus 25.4365 -43.1302 72.95
lradius 136.422
lwrist 93.5313
lhand -34.2508 61.1341
lfingers 7.12502
lthumb -7.42162 -90.9839
rfemur -33.6436 7.00828 10.7941
rtibia 42.3913
rfoot -15.4901 -11.0209
rtoes -3.40758
lfemur -24.5745 -7.0303 -11.7828
ltibia 45.5673
lfoot -9.34141 -0.0188002
ltoes -21.3989
837
root 0.319552 18.2862 0.554137 7.91696 10.8064 4.85035
lowerback 15.0662 -0.539657 -2.9082
upperback 7.53194 -1.04015 -0.322329
thorax -0.42919 -0.565493 1.45878
lowerneck 4.23898 -2.66842 -8.85669
upperneck 20.1752 -4.28538 5.50932
head 5.70497 -2.34292 3.08372
rclavicle -2.80286e-014 2.78299e-015
rhumerus -19.9511 36.1897 -88.7521
rradius 53.5387
rwrist 19.6696
rhand -8.46604 1.45881
rfingers 7.12502
rthumb 17.4604 -27.777
lclavicle -2.80286e-014 2.78299e-015
lhumerus 26.6968 -42.9589 72.3042
lradius 136.385
lwrist 93.8378
lhand -33.7223 61.7819
lfingers 7.12502
lthumb -6.91149 -91.6491
rfemur -32.8768 6.97067 11.0507
rtibia 42.316
rfoot -15.5395 -10.6656
rtoes -3.63471
lfemur -24.3716 -6.96129 -11.7299
ltibia 46.6461
lfoot -8.65325 -0.195347
ltoes -21.519
838
root 0.306015 18.2829 0.606921 7.32737 10.2783 4.68763
lowerback 15.2964 -0.45376 -2.5999
upperback 7.12629 -0.911008 -0.450191
thorax -0.994926 -0.482467 1.13921
lowerneck 4.15484 -2.74293 -8.90229
upperneck 20.3738 -4.42519 5.72849
head 5.79625 -2.40304 3.15595
rclavicle 1.61016e-014 2.5842e-015
rhumerus -20.3861 35.895 -88.9748
rradius 53.4426
rwrist 19.6467
rhand -8.41065 1.7901
rfingers 7.12502
rthumb 17.5137 -27.441
lclavicle 1.61016e-014 2.5842e-015
lhumerus 27.1302 -43.2928 72.0226
lradius 136.487
lwrist 93.9955
lhand -34.1209 62.9155
lfingers 7.12502
lthumb -7.29624 -92.7697
rfemur -32.2423 7.35379 11.3733
rtibia 42.2033
rfoot -15.5354 -10.4681
rtoes -3.88134
lfemur -24.1976 -6.64638 -11.5076
ltibia 47.7105
lfoot -7.85405 -0.457518
ltoes -21.0094
839
root 0.292217 18.2814 0.663005 6.71502 9.74075 4.5419
lowerback 15.678 -0.298035 -2.21486
upperback 6.56345 -0.685175 -0.565899
thorax -1.80763 -0.350189 0.773263
lowerneck 4.42412 -2.89205 -9.12522
upperneck 20.5107 -4.70405 6.04026
head 5.82736 -2.54144 3.2871
rclavicle 1.72943e-014 -1.86858e-014
rhumerus -21.2119 35.5571 -89.1911
rradius 53.5468
rwrist 19.3791
rhand -8.69203 1.80478
rfingers 7.12502
rthumb 17.2429 -27.4502
lclavicle 1.72943e-014 -1.86858e-014
lhumerus 27.228 -44.1023 72.1676
lradius 136.502
lwrist 93.738
lhand -34.6349 63.8314
lfingers 7.12502
lthumb -7.79237 -93.6678
rfemur -31.5585 7.64655 11.7219
rtibia 42.0862
rfoot -15.5011 -10.2325
rtoes -3.86597
lfemur -23.9704 -6.32295 -11.2933
ltibia 48.7426
lfoot -6.97288 -0.775185
ltoes -20.5504
840
root 0.282331 18.2879 0.720429 6.09044 9.32562 4.46464
lowerback 15.3994 -0.173618 -2.01479
upperback 6.50392 -0.492073 -0.616906
thorax -1.73177 -0.252157 0.573138
lowerneck 4.36185 -3.1079 -9.23217
upperneck 20.2952 -5.0304 6.29522
head 5.80294 -2.69102 3.37001
rclavicle 1.39149e-014 -4.77083e-015
rhumerus -20.9766 35.2285 -88.7637
rradius 53.5085
rwrist 19.1346
rhand -8.91472 1.92188
rfingers 7.12502
rthumb 17.0285 -27.3518
lclavicle 1.39149e-014 -4.77083e-015
lhumerus 28.1576 -44.4638 71.83
lradius 136.453
lwrist 93.5211
lhand -34.8384 64.305
lfingers 7.12502
lthumb -7.98878 -94.134
rfemur -30.7302 7.72692 12.0411
rtibia 41.9859
rfoot -15.5854 -9.97932
rtoes -3.60723
lfemur -23.6968 -6.10639 -11.1687
ltibia 49.7456
lfoot -6.17922 -1.06521
ltoes -20.9152
841
root 0.27176 18.2917 0.773109 5.46112 8.78202 4.28374
lowerback 14.8217 -0.138802 -2.12875
upperback 6.70544 -0.444891 -0.619024
thorax -1.21318 -0.237611 0.623299
lowerneck 3.93517 -3.18569 -8.86254
upperneck 20.0408 -5.09411 6.2049
head 5.78578 -2.69595 3.26602
rclavicle 8.34896e-015 1.78906e-015
rhumerus -20.0674 35.3504 -88.2558
rradius 53.3963
rwrist 18.8655
rhand -9.04052 2.15816
rfingers 7.12502
rthumb 16.9074 -27.1259
lclavicle 8.34896e-015 1.78906e-015
lhumerus 29.1555 -44.081 70.9641
lradius 136.424
lwrist 93.3551
lhand -35.3738 64.1584
lfingers 7.12502
lthumb -8.50551 -93.9671
rfemur -29.9423 7.93628 12.4591
rtibia 41.914
rfoot -15.7412 -9.71005
rtoes -3.39618
lfemur -23.4295 -5.71698 -10.9229
ltibia 50.7359
lfoot -5.50304 -1.30102
ltoes -21.7312
842
root 0.26193 18.2936 0.826292 4.93395 8.09052 4.05531
lowerback 14.2712 -0.0348348 -2.35776
upperback 6.76897 -0.322837 -0.558644
thorax -0.854442 -0.187885 0.793927
lowerneck 3.5891 -3.2597 -8.35417
upperneck 19.8254 -5.13715 5.94446
head 5.75922 -2.693 3.08688
rclavicle 3.97569e-015 2.08724e-014
rhumerus -19.2918 35.525 -87.7444
rradius 53.3872
rwrist 18.5559
rhand -8.88007 2.32583
rfingers 7.12502
rthumb 17.0619 -26.9449
lclavicle 3.97569e-015 2.08724e-014
lhumerus 29.9258 -43.7751 70.1652
lradius 136.353
lwrist 93.0015
lhand -35.6891 63.5574
lfingers 7.12502
lthumb -8.80982 -93.3535
rfemur -29.3518 8.25145 12.8834
rtibia 41.8438
rfoot -15.8838 -9.35281
rtoes -3.18724
lfemur -23.261 -5.26665 -10.5984
ltibia 51.6996
lfoot -4.86485 -1.47744
ltoes -22.3511
843
root 0.253007 18.2963 0.878334 4.40767 7.59508 3.94607
lowerback 13.8843 0.0951912 -2.43242
upperback 6.73528 -0.152614 -0.546626
thorax -0.688575 -0.107574 0.822877
lowerneck 3.35161 -3.41196 -7.96142
upperneck 19.6384 -5.30814 5.78115
head 5.73813 -2.75551 2.95491
rclavicle 1.09332e-014 -1.39149e-014
rhumerus -18.7085 35.2514 -87.1427
rradius 53.4467
rwrist 18.3152
rhand -8.46582 2.48363
rfingers 7.12502
rthumb 17.4606 -26.7522
lclavicle 1.09332e-014 -1.39149e-014
lhumerus 30.7415 -43.9435 69.5168
lradius 136.244
lwrist 92.4297
lhand -35.656 63.0366
lfingers 7.12502
lthumb -8.77784 -92.834
rfemur -28.6848 8.42388 13.1843
rtibia 41.7439
rfoot -16.0895 -9.01088
rtoes -2.58675
lfemur -23.1412 -5.04008 -10.3698
ltibia 52.6461
lfoot -3.63763 -1.70832
ltoes -20.8132
844
root 0.245293 18.2997 0.929263 3.79652 7.20409 3.81456
lowerback 13.7282 0.0919962 -2.45353
upperback 6.62228 -0.157225 -0.455694
thorax -0.723564 -0.111595 0.93
lowerneck 3.23127 -3.40417 -8.1207
upperneck 19.5017 -5.29079 5.79359
head 5.71894 -2.75759 2.98315
rclavicle -1.2921e-015 -1.43125e-014
rhumerus -18.206 35.3832 -86.5114
rradius 53.476
rwrist 18.062
rhand -8.94567 2.62874
rfingers 7.12502
rthumb 16.9987 -26.6475
lclavicle -1.2921e-015 -1.43125e-014
lhumerus 31.0854 -43.7334 69.3523
lradius 136.133
lwrist 92.1975
lhand -35.4826 63.129
lfingers 7.12502
lthumb -8.61053 -92.9335
rfemur -27.8708 8.48462 13.5436
rtibia 41.6128
rfoot -16.1758 -8.66351
rtoes -2.2173
lfemur -22.952 -4.87786 -10.1065
ltibia 53.5628
lfoot -1.89038 -2.07158
ltoes -17.6648
845
root 0.239348 18.3037 0.983125 3.18122 6.68805 3.52877
lowerback 13.5075 0.00854 -2.43155
upperback 6.54119 -0.257276 -0.225045
thorax -0.686381 -0.165631 1.17107
lowerneck 3.02661 -3.26749 -8.71853
upperneck 19.3389 -5.1031 5.92991
head 5.7079 -2.69916 3.13087
rclavicle 4.37326e-015 -1.47101e-014
rhumerus -17.45 36.0793 -85.668
rradius 53.4024
rwrist 17.845
rhand -10.2781 2.60602
rfingers 7.12502
rthumb 15.7158 -26.7758
lclavicle 4.37326e-015 -1.47101e-014
lhumerus 31.1423 -43.0131 69.4511
lradius 136.129
lwrist 92.3181
lhand -35.284 63.7096
lfingers 7.12502
lthumb -8.41885 -93.5218
rfemur -27.0756 8.58463 14.0692
rtibia 41.4619
rfoot -16.1827 -8.28796
rtoes -2.32504
lfemur -22.686 -4.60116 -9.67485
ltibia 54.4629
lfoot -0.569749 -2.50359
ltoes -15.9112
846
root 0.234017 18.3069 1.03844 2.53248 6.10592 3.35795
lowerback 13.2475 -0.00093448 -2.4734
upperback 6.53208 -0.26714 -0.0871027
thorax -0.555334 -0.176193 1.33833
lowerneck 2.54211 -3.22924 -8.97396
upperneck 19.3454 -5.01563 5.93418
head 5.79221 -2.6691 3.17016
rclavicle -5.26779e-015 3.97569e-015
rhumerus -16.634 36.3302 -84.873
rradius 53.3135
rwrist 17.9913
rhand -11.3815 2.97699
rfingers 7.12502
rthumb 14.6529 -26.4853
lclavicle -5.26779e-015 3.97569e-015
lhumerus 31.4104 -42.5408 69.2791
lradius 136.149
lwrist 92.3674
lhand -35.2289 63.7018
lfingers 7.12502
lthumb -8.36563 -93.5162
rfemur -26.2164 8.85338 14.4506
rtibia 41.3025
rfoot -16.2395 -7.98968
rtoes -2.58451
lfemur -22.304 -4.37129 -9.37617
ltibia 55.3305
lfoot 0.282225 -2.8864
ltoes -15.1993
847
root 0.22913 18.3078 1.09049 1.90512 5.59713 3.26506
lowerback 13.0927 0.0022789 -2.47982
upperback 6.45782 -0.262127 -0.0600493
thorax -0.550392 -0.174646 1.3689
lowerneck 2.15547 -3.22898 -9.01299
upperneck 19.3487 -4.98996 5.93175
head 5.85746 -2.65585 3.17008
rclavicle -1.04362e-014 8.74653e-015
rhumerus -16.0162 36.173 -84.3037
rradius 53.263
rwrist 18.32
rhand -11.934 3.41183
rfingers 7.12502
rthumb 14.1206 -26.0884
lclavicle -1.04362e-014 8.74653e-015
lhumerus 31.8416 -42.2904 68.8511
lradius 136.169
lwrist 92.2657
lhand -35.0443 63.1296
lfingers 7.12502
lthumb -8.18756 -92.951
rfemur -25.3642 9.0901 14.7499
rtibia 41.1449
rfoot -16.2899 -7.75002
rtoes -2.95892
lfemur -21.9776 -4.21514 -9.14337
ltibia 56.1561
lfoot 1.22917 -3.34957
ltoes -14.1232
848
root 0.228731 18.3115 1.14517 1.36715 5.1381 3.16527
lowerback 12.8234 -0.0123453 -2.42047
upperback 6.32693 -0.270975 -0.0388902
thorax -0.543408 -0.178065 1.3577
lowerneck 2.21534 -3.19381 -9.17237
upperneck 19.0438 -4.96297 6.07927
head 5.75572 -2.64636 3.24467
rclavicle 1.0635e-014 -1.31198e-014
rhumerus -15.4159 36.0494 -83.7184
rradius 53.276
rwrist 18.272
rhand -12.3432 3.48947
rfingers 7.12502
rthumb 13.7263 -26.0378
lclavicle 1.0635e-014 -1.31198e-014
lhumerus 32.1199 -42.0623 68.5345
lradius 136.17
lwrist 92.0276
lhand -34.3081 62.4033
lfingers 7.12502
lthumb -7.47695 -92.2512
rfemur -24.5953 9.19925 15.0245
rtibia 40.9947
rfoot -16.314 -7.46347
rtoes -2.92497
lfemur -21.7461 -4.14352 -8.9197
ltibia 56.9104
lfoot 2.09076 -3.80303
ltoes -13.5978
